<svg height="480pt" viewBox="0 -24 480 480" width="480pt" xmlns="http://www.w3.org/2000/svg"><path d="m472 80c4.417969 0 8-3.582031 8-8v-32c0-22.089844-17.910156-40-40-40h-400c-22.089844 0-40 17.910156-40 40v256c0 22.089844 17.910156 40 40 40h129.601562l-30 48h-27.601562c-22.089844 0-40 17.910156-40 40 0 4.417969 3.582031 8 8 8h320c4.417969 0 8-3.582031 8-8 0-22.089844-17.910156-40-40-40h-27.601562l-30-48h129.601562c22.089844 0 40-17.910156 40-40v-168c0-4.417969-3.582031-8-8-8s-8 3.582031-8 8v128h-368c-4.417969 0-8 3.582031-8 8s3.582031 8 8 8h368v24c0 13.253906-10.746094 24-24 24h-400c-13.253906 0-24-10.746094-24-24v-24h37.359375c4.417969 0 8-3.582031 8-8s-3.582031-8-8-8h-37.359375v-216c0-13.253906 10.746094-24 24-24h400c13.253906 0 24 10.746094 24 24v32c0 4.417969 3.582031 8 8 8zm-81.359375 336h-301.28125c3.390625-9.59375 12.464844-16.003906 22.640625-16h256c10.175781-.003906 19.25 6.40625 22.640625 16zm-99.039063-80 30 48h-163.203124l30-48zm0 0"/><path d="m416 296c0 4.417969-3.582031 8-8 8s-8-3.582031-8-8 3.582031-8 8-8 8 3.582031 8 8zm0 0"/><path d="m384 296c0 4.417969-3.582031 8-8 8s-8-3.582031-8-8 3.582031-8 8-8 8 3.582031 8 8zm0 0"/><path d="m152 216c4.417969 0 8-3.582031 8-8v-13.441406c2.792969-1.257813 5.46875-2.757813 8-4.480469l11.679688 6.722656c3.824218 2.171875 8.683593.847657 10.878906-2.960937l16-27.679688c1.078125-1.835937 1.375-4.023437.835937-6.078125-.539062-2.054687-1.875-3.8125-3.714843-4.882812l-11.679688-6.71875c0-1.519531 0-2.960938 0-4.480469s0-2.960938 0-4.480469l11.601562-6.71875c1.835938-1.070312 3.171876-2.828125 3.714844-4.882812.539063-2.054688.238282-4.242188-.835937-6.078125l-16-27.679688c-2.199219-3.808594-7.054688-5.132812-10.878907-2.960937l-11.601562 6.722656c-2.53125-1.722656-5.207031-3.222656-8-4.480469v-13.441406c0-4.417969-3.582031-8-8-8h-32c-4.417969 0-8 3.582031-8 8v13.441406c-2.792969 1.257813-5.46875 2.757813-8 4.480469l-11.679688-6.722656c-3.824218-2.171875-8.683593-.847657-10.878906 2.960937l-16 27.679688c-1.078125 1.835937-1.375 4.023437-.835937 6.078125.539062 2.054687 1.875 3.8125 3.714843 4.882812l11.601563 6.71875v4.480469 4.480469l-11.601563 6.71875c-1.839843 1.070312-3.175781 2.828125-3.714843 4.882812-.539063 2.054688-.242188 4.242188.835937 6.078125l16 27.679688c2.195313 3.808594 7.054688 5.132812 10.878906 2.960937l11.679688-6.722656c2.53125 1.722656 5.207031 3.222656 8 4.480469v13.441406c0 4.417969 3.582031 8 8 8s8-3.582031 8-8v-18.800781c-.011719-3.386719-2.160156-6.402344-5.359375-7.519531-4.617187-1.644532-8.898437-4.113282-12.640625-7.28125-2.570312-2.210938-6.257812-2.566407-9.199219-.878907l-9.28125 5.441407-8-13.921876 9.28125-5.039062c2.960938-1.679688 4.53125-5.050781 3.917969-8.398438-.957031-4.808593-.957031-9.753906 0-14.5625.925781-3.554687-.691406-7.285156-3.917969-9.039062l-9.28125-5.359375 8-13.921875 9.28125 5.441406c2.941407 1.6875 6.628907 1.335938 9.199219-.878906 3.742188-3.167969 8.023438-5.636719 12.640625-7.28125 3.199219-1.117188 5.347656-4.132812 5.359375-7.519531v-10.480469h16v10.800781c.011719 3.386719 2.160156 6.402344 5.359375 7.519531 4.617187 1.644532 8.898437 4.113282 12.640625 7.28125 2.570312 2.210938 6.257812 2.566407 9.199219.878907l9.28125-5.441407 8 13.921876-9.28125 5.039062c-2.960938 1.679688-4.53125 5.050781-3.917969 8.398438.957031 4.808593.957031 9.753906 0 14.5625-.925781 3.554687.691406 7.285156 3.917969 9.039062l9.28125 5.359375-8 13.921875-9.28125-5.441406c-2.941407-1.6875-6.628907-1.335938-9.199219.878906-3.742188 3.167969-8.023438 5.636719-12.640625 7.28125-3.199219 1.117188-5.347656 4.132812-5.359375 7.519531v18.480469c0 4.417969 3.582031 8 8 8zm0 0"/><path d="m160 144c0-13.253906-10.746094-24-24-24s-24 10.746094-24 24 10.746094 24 24 24 24-10.746094 24-24zm-24 8c-4.417969 0-8-3.582031-8-8s3.582031-8 8-8 8 3.582031 8 8-3.582031 8-8 8zm0 0"/><path d="m312 144c0 17.671875 14.328125 32 32 32s32-14.328125 32-32-14.328125-32-32-32-32 14.328125-32 32zm48 0c0 8.835938-7.164062 16-16 16s-16-7.164062-16-16 7.164062-16 16-16 16 7.164062 16 16zm0 0"/><path d="m439.121094 116.800781-24-41.601562c-1.015625-1.871094-2.734375-3.257813-4.777344-3.859375-2.039062-.601563-4.238281-.363282-6.105469.660156l-20.238281 12.078125c-2.574219-1.675781-5.246094-3.199219-8-4.558594v-23.519531c0-4.417969-3.582031-8-8-8h-48c-4.417969 0-8 3.582031-8 8v23.519531c-2.753906 1.359375-5.425781 2.882813-8 4.558594l-20.238281-12.078125c-3.804688-2.183594-8.65625-.898438-10.882813 2.878906l-24 41.601563c-1.261718 1.878906-1.667968 4.203125-1.117187 6.398437.546875 2.195313 2 4.058594 4 5.121094l20.238281 11.519531v4.480469 4.480469l-20.238281 11.519531c-3.78125 2.222656-5.066407 7.078125-2.882813 10.878906l24 41.601563c2.226563 3.78125 7.078125 5.0625 10.882813 2.878906l20.238281-11.4375c2.574219 1.675781 5.246094 3.199219 8 4.558594v23.519531c0 4.417969 3.582031 8 8 8h48c4.417969 0 8-3.582031 8-8v-23.519531c2.753906-1.359375 5.425781-2.882813 8-4.558594l20.238281 12.078125c3.804688 2.183594 8.65625.898438 10.882813-2.878906 1.074218-1.835938 1.375-4.023438.835937-6.078125-.542969-2.058594-1.878906-3.8125-3.71875-4.882813l-24.878906-14.320312c-2.820313-1.664063-6.367187-1.441406-8.960937.558594-4.066407 3.304687-8.59375 6-13.4375 8-2.988282 1.230468-4.945313 4.132812-4.960938 7.363281v20.238281h-32v-20.71875c-.015625-3.230469-1.972656-6.132812-4.960938-7.359375-4.84375-2.003906-9.371093-4.699219-13.4375-8-2.59375-2.003906-6.140624-2.226563-8.960937-.5625l-17.921875 10.320313-16-27.679688 17.921875-10c2.839844-1.601562 4.421875-4.765625 4-8-.855469-5.136719-.855469-10.382812 0-15.519531.421875-3.234375-1.160156-6.398438-4-8l-17.921875-10.402344 16-27.679687 17.921875 10.320312c2.820313 1.664062 6.367187 1.445312 8.960937-.558594 4.066407-3.304687 8.59375-5.996094 13.4375-8 2.988282-1.226562 4.945313-4.128906 4.960938-7.359375v-20.800781h32v20.71875c.015625 3.230469 1.972656 6.132812 4.960938 7.359375 4.84375 2.003906 9.371093 4.699219 13.4375 8 2.59375 2.003906 6.140624 2.226563 8.960937.5625l17.921875-10.320313 16 27.679688-17.921875 10c-2.839844 1.601562-4.421875 4.765625-4 8 .855469 5.136719.855469 10.382812 0 15.519531-.421875 3.234375 1.160156 6.398438 4 8l24.878906 14.402344c3.800781 1.984375 8.492188.625 10.636719-3.085937 2.144531-3.710938.984375-8.457032-2.636719-10.757813l-20.238281-11.597656c0-1.519531 0-3.039063 0-4.480469s0-2.960938 0-4.480469l20.238281-11.519531c1.90625-1.070312 3.292969-2.871094 3.835938-4.984375.542969-2.117187.199219-4.359375-.953125-6.214844zm0 0"/><path d="m184 62.71875c1.46875-.007812 2.910156-.425781 4.160156-1.199219 22.007813-13.648437 48.828125-17.148437 73.601563-9.597656 2.078125.691406 4.351562.503906 6.285156-.523437 1.9375-1.03125 3.363281-2.808594 3.953125-4.917969 1.238281-4.242188-1.199219-8.683594-5.441406-9.921875-29.203125-8.855469-60.808594-4.6875-86.71875 11.441406-1.820313 1.109375-3.121094 2.898438-3.617188 4.96875-.496094 2.074219-.144531 4.257812.976563 6.070312 1.484375 2.3125 4.050781 3.703126 6.800781 3.679688zm0 0"/><path d="m179.839844 224c16.851562 10.351562 36.222656 15.886719 56 16 7.292968-.023438 14.558594-.828125 21.679687-2.398438 2.96875-.417968 5.453125-2.457031 6.441407-5.289062.988281-2.828125.3125-5.972656-1.753907-8.144531-2.066406-2.175781-5.171875-3.011719-8.046875-2.167969-5.964844 1.308594-12.054687 1.980469-18.160156 2-16.941406.023438-33.558594-4.65625-48-13.519531-3.757812-2.28125-8.652344-1.101563-10.960938 2.640625-2.199218 3.78125-.949218 8.628906 2.800782 10.878906zm0 0"/></svg>